REM DIRINDEX 1\2,1\3,1\4,1\5
REM DIRNAME cjc004,folder01,folder02,folder03,folder04
TITLE ""
FILE "1Q_t_1217-1226.mp3" MP3
  TRACK 01 AUDIO
    TITLE "3:cjc004_4556"
    INDEX 01 00:00:00
  TRACK 02 AUDIO
    TITLE "0:"
    INDEX 01 00:00:70
  TRACK 03 AUDIO
    TITLE "4:cjc004_4557"
    INDEX 01 00:01:22
  TRACK 04 AUDIO
    TITLE "0:"
    INDEX 01 00:03:00
  TRACK 05 AUDIO
    TITLE "5:cjc004_4558"
    INDEX 01 00:03:25
  TRACK 06 AUDIO
    TITLE "0:"
    INDEX 01 00:07:66
  TRACK 07 AUDIO
    TITLE "3:cjc004_4559"
    INDEX 01 00:08:44
  TRACK 08 AUDIO
    TITLE "0:"
    INDEX 01 00:09:51
  TRACK 09 AUDIO
    TITLE "4:cjc004_4560"
    INDEX 01 00:10:06
  TRACK 10 AUDIO
    TITLE "0:"
    INDEX 01 00:11:46
  TRACK 11 AUDIO
    TITLE "5:cjc004_4561"
    INDEX 01 00:11:70
  TRACK 12 AUDIO
    TITLE "0:"
    INDEX 01 00:15:46
  TRACK 13 AUDIO
    TITLE "3:cjc004_4562"
    INDEX 01 00:16:20
  TRACK 14 AUDIO
    TITLE "0:"
    INDEX 01 00:17:55
  TRACK 15 AUDIO
    TITLE "4:cjc004_4563"
    INDEX 01 00:18:13
  TRACK 16 AUDIO
    TITLE "0:"
    INDEX 01 00:19:42
  TRACK 17 AUDIO
    TITLE "5:cjc004_4564"
    INDEX 01 00:19:67
  TRACK 18 AUDIO
    TITLE "0:"
    INDEX 01 00:24:00
  TRACK 19 AUDIO
    TITLE "3:cjc004_4565"
    INDEX 01 00:24:53
  TRACK 20 AUDIO
    TITLE "0:"
    INDEX 01 00:25:62
  TRACK 21 AUDIO
    TITLE "4:cjc004_4566"
    INDEX 01 00:26:20
  TRACK 22 AUDIO
    TITLE "0:"
    INDEX 01 00:27:34
  TRACK 23 AUDIO
    TITLE "5:cjc004_4567"
    INDEX 01 00:27:61
  TRACK 24 AUDIO
    TITLE "0:"
    INDEX 01 00:32:27
  TRACK 25 AUDIO
    TITLE "3:cjc004_4568"
    INDEX 01 00:33:07
  TRACK 26 AUDIO
    TITLE "0:"
    INDEX 01 00:34:24
  TRACK 27 AUDIO
    TITLE "4:cjc004_4569"
    INDEX 01 00:34:55
  TRACK 28 AUDIO
    TITLE "0:"
    INDEX 01 00:36:07
  TRACK 29 AUDIO
    TITLE "5:cjc004_4570"
    INDEX 01 00:36:27
  TRACK 30 AUDIO
    TITLE "0:"
    INDEX 01 00:40:38
  TRACK 31 AUDIO
    TITLE "3:cjc004_4571"
    INDEX 01 00:41:22
  TRACK 32 AUDIO
    TITLE "0:"
    INDEX 01 00:42:43
  TRACK 33 AUDIO
    TITLE "4:cjc004_4572"
    INDEX 01 00:42:68
  TRACK 34 AUDIO
    TITLE "0:"
    INDEX 01 00:44:42
  TRACK 35 AUDIO
    TITLE "5:cjc004_4573"
    INDEX 01 00:44:65
  TRACK 36 AUDIO
    TITLE "0:"
    INDEX 01 00:49:23
  TRACK 37 AUDIO
    TITLE "3:cjc004_4574"
    INDEX 01 00:49:72
  TRACK 38 AUDIO
    TITLE "0:"
    INDEX 01 00:51:15
  TRACK 39 AUDIO
    TITLE "4:cjc004_4575"
    INDEX 01 00:51:42
  TRACK 40 AUDIO
    TITLE "0:"
    INDEX 01 00:52:51
  TRACK 41 AUDIO
    TITLE "5:cjc004_4576"
    INDEX 01 00:53:00
  TRACK 42 AUDIO
    TITLE "0:"
    INDEX 01 00:57:41
  TRACK 43 AUDIO
    TITLE "3:cjc004_4577"
    INDEX 01 00:58:20
  TRACK 44 AUDIO
    TITLE "0:"
    INDEX 01 00:59:39
  TRACK 45 AUDIO
    TITLE "4:cjc004_4578"
    INDEX 01 00:59:63
  TRACK 46 AUDIO
    TITLE "0:"
    INDEX 01 01:01:23
  TRACK 47 AUDIO
    TITLE "5:cjc004_4579"
    INDEX 01 01:01:50
  TRACK 48 AUDIO
    TITLE "0:"
    INDEX 01 01:06:00
  TRACK 49 AUDIO
    TITLE "3:cjc004_4580"
    INDEX 01 01:06:55
  TRACK 50 AUDIO
    TITLE "0:"
    INDEX 01 01:07:74
  TRACK 51 AUDIO
    TITLE "4:cjc004_4581"
    INDEX 01 01:08:25
  TRACK 52 AUDIO
    TITLE "0:"
    INDEX 01 01:09:46
  TRACK 53 AUDIO
    TITLE "5:cjc004_4582"
    INDEX 01 01:09:73
  TRACK 54 AUDIO
    TITLE "0:"
    INDEX 01 01:14:31
  TRACK 55 AUDIO
    TITLE "3:cjc004_4583"
    INDEX 01 01:15:09
  TRACK 56 AUDIO
    TITLE "0:"
    INDEX 01 01:16:20
  TRACK 57 AUDIO
    TITLE "4:cjc004_4584"
    INDEX 01 01:16:46
  TRACK 58 AUDIO
    TITLE "0:"
    INDEX 01 01:18:06
  TRACK 59 AUDIO
    TITLE "5:cjc004_4585"
    INDEX 01 01:18:31
  TRACK 60 AUDIO
    TITLE "0:"
    INDEX 01 01:22:44
